<svg width="428" height="211" viewBox="0 0 428 211" fill="none" xmlns="http://www.w3.org/2000/svg">
<path d="M172 81C172 152.797 113.797 211 42 211C-29.797 211 -88 152.797 -88 81C-88 9.20298 -29.797 -49 42 -49C113.797 -49 172 9.20298 172 81Z" fill="#F2BF27"/>
<path d="M356 81C356 152.797 297.797 211 226 211C154.203 211 96 152.797 96 81C96 9.20298 154.203 -49 226 -49C297.797 -49 356 9.20298 356 81Z" fill="#E2AE4B"/>
<path d="M548 81C548 152.797 489.797 211 418 211C346.203 211 288 152.797 288 81C288 9.20298 346.203 -49 418 -49C489.797 -49 548 9.20298 548 81Z" fill="#E27400"/>
</svg>
